<svg xmlns="http://www.w3.org/2000/svg" version="1.1" xmlns:xlink="http://www.w3.org/1999/xlink" xmlns:svgjs="http://svgjs.dev/svgjs" width="1000" height="1000" viewBox="0 0 1000 1000"><rect width="1000" height="1000" fill="#ffffff"></rect><g transform="matrix(0.7,0,0,0.7,149.57575924923373,410.5492637386984)"><svg viewBox="0 0 396 101" data-background-color="#ffffff" preserveAspectRatio="xMidYMid meet" height="255" width="1000" xmlns="http://www.w3.org/2000/svg" xmlns:xlink="http://www.w3.org/1999/xlink"><g id="tight-bounds" transform="matrix(1,0,0,1,0.24000094670941508,0.11358186213703902)"><svg viewBox="0 0 395.52 100.7728362757259" height="100.7728362757259" width="395.52"><g><svg viewBox="0 0 655.509031874037 167.0143212639106" height="100.7728362757259" width="395.52"><g transform="matrix(1,0,0,1,258.011431874037,35.75720526062491)"><svg viewBox="0 0 397.4975999999999 95.49991074266079" height="95.49991074266079" width="397.4975999999999"><g id="textblocktransform"><svg viewBox="0 0 397.4975999999999 95.49991074266079" height="95.49991074266079" width="397.4975999999999" id="textblock"><g><rect width="397.4975999999999" height="4.720723558282152" x="0" y="57.90825113774933" fill="#101010" opacity="1" stroke-width="0" stroke="transparent" fill-opacity="1" class="rect-o-0" data-fill-palette-color="primary" rx="1%" id="o-0" data-palette-color="#101010"></rect></g><g transform="matrix(1,0,0,1,0.9887999999999693,0)"><svg viewBox="0 0 395.52 52.34718935443266" height="52.34718935443266" width="395.52"><g transform="matrix(1,0,0,1,0,0)"><svg width="395.52" viewBox="2.1500000953674316 -35.79999923706055 278.0299987792969 36.79999923706055" height="52.34718935443266" data-palette-color="#101010"><path d="M2.15-34.8L25-34.8 23.95-27.65 12.45-27.65 12.45-21.15 22.55-21.15 22.55-14.2 12.45-14.2 12.45-7.2 24.75-7.2 24.75 0 2.15 0 2.15-34.8ZM43.6-35.8Q50.05-35.8 54.8-31.7L54.8-31.7 50.05-26.1Q48.55-27.2 47.12-27.8 45.7-28.4 44.1-28.4L44.1-28.4Q41.05-28.4 39.37-25.65 37.7-22.9 37.7-17.5L37.7-17.5Q37.7-12.1 39.4-9.43 41.1-6.75 44.25-6.75L44.25-6.75Q45.95-6.75 47.42-7.45 48.9-8.15 50.7-9.55L50.7-9.55 55.2-3.85Q53.1-1.75 50.12-0.38 47.15 1 43.75 1L43.75 1Q38.6 1 34.85-1.13 31.1-3.25 29.05-7.4 27-11.55 27-17.5L27-17.5Q27-23.2 29.1-27.33 31.2-31.45 34.95-33.63 38.7-35.8 43.6-35.8L43.6-35.8ZM72.45-35.8Q80.25-35.8 84.47-30.98 88.7-26.15 88.7-17.45L88.7-17.45Q88.7-11.8 86.8-7.65 84.9-3.5 81.25-1.25 77.6 1 72.45 1L72.45 1Q64.65 1 60.42-3.88 56.2-8.75 56.2-17.45L56.2-17.45Q56.2-23.1 58.1-27.23 60-31.35 63.65-33.58 67.3-35.8 72.45-35.8L72.45-35.8ZM72.45-28.5Q69.5-28.5 68.2-25.98 66.9-23.45 66.9-17.45L66.9-17.45Q66.9-11.45 68.2-8.88 69.5-6.3 72.45-6.3L72.45-6.3Q75.45-6.3 76.72-8.85 78-11.4 78-17.45L78-17.45Q78-23.45 76.7-25.98 75.4-28.5 72.45-28.5L72.45-28.5ZM125.99-34.8L128.49 0 118.34 0 118.09-12.35Q118.04-13.8 118.04-16.7L118.04-16.7Q118.04-21.8 118.44-26.55L118.44-26.55 114.34-3.5 104.59-3.5 100.19-26.55Q100.84-19.6 100.84-14.65L100.84-14.65 100.84-12.4 100.59 0 90.44 0 92.94-34.8 105.64-34.8 109.64-12.25 113.24-34.8 125.99-34.8ZM165.54-34.8L168.04 0 157.89 0 157.64-12.35Q157.59-13.8 157.59-16.7L157.59-16.7Q157.59-21.8 157.99-26.55L157.99-26.55 153.89-3.5 144.14-3.5 139.74-26.55Q140.39-19.6 140.39-14.65L140.39-14.65 140.39-12.4 140.14 0 129.99 0 132.49-34.8 145.19-34.8 149.19-12.25 152.79-34.8 165.54-34.8ZM170.94-34.8L193.79-34.8 192.74-27.65 181.24-27.65 181.24-21.15 191.34-21.15 191.34-14.2 181.24-14.2 181.24-7.2 193.54-7.2 193.54 0 170.94 0 170.94-34.8ZM215.59 0L209.14-12.4 207.24-12.4 207.24 0 196.94 0 196.94-34.8 209.69-34.8Q217.24-34.8 220.94-32.13 224.64-29.45 224.64-23.75L224.64-23.75Q224.64-20.5 223.19-18.35 221.74-16.2 218.49-14.3L218.49-14.3 226.99 0 215.59 0ZM207.24-27.75L207.24-19.3 209.94-19.3Q212.04-19.3 213.09-20.4 214.14-21.5 214.14-23.75L214.14-23.75Q214.14-27.75 209.44-27.75L209.44-27.75 207.24-27.75ZM243.58-35.8Q250.03-35.8 254.78-31.7L254.78-31.7 250.03-26.1Q248.53-27.2 247.11-27.8 245.68-28.4 244.08-28.4L244.08-28.4Q241.03-28.4 239.36-25.65 237.68-22.9 237.68-17.5L237.68-17.5Q237.68-12.1 239.38-9.43 241.08-6.75 244.23-6.75L244.23-6.75Q245.93-6.75 247.41-7.45 248.88-8.15 250.68-9.55L250.68-9.55 255.18-3.85Q253.08-1.75 250.11-0.38 247.13 1 243.73 1L243.73 1Q238.58 1 234.83-1.13 231.08-3.25 229.03-7.4 226.98-11.55 226.98-17.5L226.98-17.5Q226.98-23.2 229.08-27.33 231.18-31.45 234.93-33.63 238.68-35.8 243.58-35.8L243.58-35.8ZM257.33-34.8L280.18-34.8 279.13-27.65 267.63-27.65 267.63-21.15 277.73-21.15 277.73-14.2 267.63-14.2 267.63-7.2 279.93-7.2 279.93 0 257.33 0 257.33-34.8Z" opacity="1" transform="matrix(1,0,0,1,0,0)" fill="#101010" class="undefined-text-0" data-fill-palette-color="primary" id="text-0"></path></svg></g></svg></g><g transform="matrix(1,0,0,1,0,68.19003647934815)"><svg viewBox="0 0 232.209792 27.30987426331264" height="27.30987426331264" width="232.209792"><g transform="matrix(1,0,0,1,0,0)"><svg width="232.209792" viewBox="3.9000000953674316 -35.5 306.08001708984375 36" height="27.30987426331264" data-palette-color="#21201e"><path d="M9.65 0L5.1 0Q4.6 0 4.25-0.35 3.9-0.7 3.9-1.2L3.9-1.2 3.9-33.75Q3.9-34.3 4.25-34.65 4.6-35 5.1-35L5.1-35 18.05-35Q24.1-35 27.6-32.2 31.1-29.4 31.1-24.05L31.1-24.05Q31.1-20.35 29.28-17.9 27.45-15.45 24.4-14.35L24.4-14.35 31.7-1.6Q31.85-1.3 31.85-1.05L31.85-1.05Q31.85-0.6 31.53-0.3 31.2 0 30.8 0L30.8 0 26.25 0Q25.4 0 24.95-0.45 24.5-0.9 24.25-1.35L24.25-1.35 17.8-13.2 10.85-13.2 10.85-1.2Q10.85-0.7 10.53-0.35 10.2 0 9.65 0L9.65 0ZM10.85-29.45L10.85-18.85 17.9-18.85Q20.95-18.85 22.45-20.23 23.95-21.6 23.95-24.1L23.95-24.1Q23.95-26.6 22.48-28.03 21-29.45 17.9-29.45L17.9-29.45 10.85-29.45ZM61.15 0L38.75 0Q38.25 0 37.9-0.35 37.55-0.7 37.55-1.2L37.55-1.2 37.55-33.75Q37.55-34.3 37.9-34.65 38.25-35 38.75-35L38.75-35 60.75-35Q61.3-35 61.65-34.65 62-34.3 62-33.75L62-33.75 62-30.45Q62-29.95 61.65-29.6 61.3-29.25 60.75-29.25L60.75-29.25 44.3-29.25 44.3-20.4 59.65-20.4Q60.2-20.4 60.55-20.08 60.9-19.75 60.9-19.2L60.9-19.2 60.9-16.1Q60.9-15.55 60.55-15.23 60.2-14.9 59.65-14.9L59.65-14.9 44.3-14.9 44.3-5.75 61.15-5.75Q61.7-5.75 62.05-5.4 62.4-5.05 62.4-4.5L62.4-4.5 62.4-1.2Q62.4-0.7 62.05-0.35 61.7 0 61.15 0L61.15 0ZM70.84 0L66.5 0Q66.09 0 65.77-0.3 65.45-0.6 65.45-1.05L65.45-1.05Q65.45-1.25 65.55-1.5L65.55-1.5 77.59-33.75Q77.75-34.25 78.17-34.63 78.59-35 79.34-35L79.34-35 84.8-35Q85.55-35 85.95-34.63 86.34-34.25 86.55-33.75L86.55-33.75 98.59-1.5Q98.65-1.25 98.65-1.05L98.65-1.05Q98.65-0.6 98.34-0.3 98.05 0 97.65 0L97.65 0 93.3 0Q92.59 0 92.27-0.33 91.95-0.65 91.84-0.95L91.84-0.95 89.5-7.05 74.65-7.05 72.3-0.95Q72.2-0.65 71.87-0.33 71.55 0 70.84 0L70.84 0ZM82.05-28.25L76.4-12.8 87.75-12.8 82.05-28.25ZM116.79 0.5L116.79 0.5Q112.14 0.5 108.92-1.13 105.69-2.75 103.99-5.78 102.29-8.8 102.09-13.05L102.09-13.05Q102.04-15.1 102.04-17.45 102.04-19.8 102.09-21.95L102.09-21.95Q102.29-26.15 104.02-29.2 105.74-32.25 108.97-33.88 112.19-35.5 116.79-35.5L116.79-35.5Q120.19-35.5 122.89-34.6 125.59-33.7 127.49-32.13 129.39-30.55 130.44-28.45 131.49-26.35 131.54-23.9L131.54-23.9Q131.59-23.45 131.27-23.15 130.94-22.85 130.49-22.85L130.49-22.85 125.74-22.85Q125.19-22.85 124.84-23.13 124.49-23.4 124.34-24.05L124.34-24.05Q123.54-27.35 121.59-28.55 119.64-29.75 116.74-29.75L116.74-29.75Q113.39-29.75 111.39-27.88 109.39-26 109.24-21.7L109.24-21.7Q109.09-17.6 109.24-13.3L109.24-13.3Q109.39-9 111.39-7.13 113.39-5.25 116.74-5.25L116.74-5.25Q119.64-5.25 121.62-6.48 123.59-7.7 124.34-10.95L124.34-10.95Q124.49-11.65 124.84-11.9 125.19-12.15 125.74-12.15L125.74-12.15 130.49-12.15Q130.94-12.15 131.27-11.85 131.59-11.55 131.54-11.1L131.54-11.1Q131.49-8.65 130.44-6.55 129.39-4.45 127.49-2.88 125.59-1.3 122.89-0.4 120.19 0.5 116.79 0.5ZM150.99 0L146.39 0Q145.89 0 145.54-0.35 145.19-0.7 145.19-1.2L145.19-1.2 145.19-28.85 135.94-28.85Q135.44-28.85 135.09-29.2 134.74-29.55 134.74-30.05L134.74-30.05 134.74-33.75Q134.74-34.3 135.09-34.65 135.44-35 135.94-35L135.94-35 161.44-35Q161.99-35 162.34-34.65 162.69-34.3 162.69-33.75L162.69-33.75 162.69-30.05Q162.69-29.55 162.34-29.2 161.99-28.85 161.44-28.85L161.44-28.85 152.24-28.85 152.24-1.2Q152.24-0.7 151.89-0.35 151.54 0 150.99 0L150.99 0ZM191.34 0.5L191.34 0.5Q186.69 0.5 183.56-0.88 180.44-2.25 178.81-4.48 177.19-6.7 177.09-9.15L177.09-9.15Q177.09-9.6 177.39-9.9 177.69-10.2 178.14-10.2L178.14-10.2 182.59-10.2Q183.24-10.2 183.56-9.93 183.89-9.65 184.14-9.25L184.14-9.25Q184.44-8.3 185.29-7.38 186.14-6.45 187.61-5.85 189.09-5.25 191.34-5.25L191.34-5.25Q194.94-5.25 196.71-6.45 198.49-7.65 198.49-9.7L198.49-9.7Q198.49-11.15 197.54-12.03 196.59-12.9 194.61-13.63 192.64-14.35 189.39-15.15L189.39-15.15Q185.64-16.05 183.11-17.32 180.59-18.6 179.31-20.55 178.04-22.5 178.04-25.5L178.04-25.5Q178.04-28.4 179.61-30.65 181.19-32.9 184.11-34.2 187.04-35.5 191.09-35.5L191.09-35.5Q194.34-35.5 196.84-34.63 199.34-33.75 200.99-32.33 202.64-30.9 203.51-29.28 204.39-27.65 204.44-26.1L204.44-26.1Q204.44-25.7 204.16-25.38 203.89-25.05 203.39-25.05L203.39-25.05 198.74-25.05Q198.34-25.05 197.94-25.25 197.54-25.45 197.29-26L197.29-26Q196.99-27.55 195.34-28.65 193.69-29.75 191.09-29.75L191.09-29.75Q188.39-29.75 186.74-28.75 185.09-27.75 185.09-25.65L185.09-25.65Q185.09-24.25 185.91-23.33 186.74-22.4 188.56-21.7 190.39-21 193.39-20.2L193.39-20.2Q197.64-19.25 200.34-18 203.04-16.75 204.29-14.83 205.54-12.9 205.54-9.95L205.54-9.95Q205.54-6.65 203.76-4.33 201.99-2 198.79-0.75 195.59 0.5 191.34 0.5ZM217.03 0L212.48 0Q211.98 0 211.63-0.33 211.28-0.65 211.28-1.2L211.28-1.2 211.28-33.75Q211.28-34.3 211.63-34.65 211.98-35 212.48-35L212.48-35 217.03-35Q217.58-35 217.91-34.65 218.23-34.3 218.23-33.75L218.23-33.75 218.23-20.85 232.98-20.85 232.98-33.75Q232.98-34.3 233.33-34.65 233.68-35 234.18-35L234.18-35 238.68-35Q239.23-35 239.58-34.65 239.93-34.3 239.93-33.75L239.93-33.75 239.93-1.2Q239.93-0.7 239.58-0.35 239.23 0 238.68 0L238.68 0 234.18 0Q233.68 0 233.33-0.35 232.98-0.7 232.98-1.2L232.98-1.2 232.98-14.6 218.23-14.6 218.23-1.2Q218.23-0.7 217.91-0.35 217.58 0 217.03 0L217.03 0ZM261.18 0.5L261.18 0.5Q256.73 0.5 253.53-0.98 250.33-2.45 248.53-5.53 246.73-8.6 246.58-13.2L246.58-13.2Q246.53-15.35 246.53-17.45 246.53-19.55 246.58-21.75L246.58-21.75Q246.73-26.3 248.58-29.35 250.43-32.4 253.66-33.95 256.88-35.5 261.18-35.5L261.18-35.5Q265.48-35.5 268.73-33.95 271.98-32.4 273.83-29.35 275.68-26.3 275.83-21.75L275.83-21.75Q275.93-19.55 275.93-17.45 275.93-15.35 275.83-13.2L275.83-13.2Q275.68-8.6 273.88-5.53 272.08-2.45 268.86-0.98 265.63 0.5 261.18 0.5ZM261.18-5.25L261.18-5.25Q264.43-5.25 266.48-7.18 268.53-9.1 268.68-13.45L268.68-13.45Q268.78-15.65 268.78-17.53 268.78-19.4 268.68-21.55L268.68-21.55Q268.58-24.45 267.61-26.28 266.63-28.1 264.98-28.93 263.33-29.75 261.18-29.75L261.18-29.75Q259.08-29.75 257.43-28.93 255.78-28.1 254.81-26.28 253.83-24.45 253.73-21.55L253.73-21.55Q253.68-19.4 253.68-17.53 253.68-15.65 253.73-13.45L253.73-13.45Q253.88-9.1 255.93-7.18 257.98-5.25 261.18-5.25ZM288.43 0L283.68 0Q283.18 0 282.83-0.35 282.48-0.7 282.48-1.2L282.48-1.2 282.48-33.75Q282.48-34.3 282.83-34.65 283.18-35 283.68-35L283.68-35 297.08-35Q300.98-35 303.88-33.77 306.78-32.55 308.38-30.08 309.98-27.6 309.98-23.9L309.98-23.9Q309.98-20.15 308.38-17.73 306.78-15.3 303.88-14.1 300.98-12.9 297.08-12.9L297.08-12.9 289.63-12.9 289.63-1.2Q289.63-0.7 289.3-0.35 288.98 0 288.43 0L288.43 0ZM289.53-29.45L289.53-18.45 296.83-18.45Q299.73-18.45 301.28-19.83 302.83-21.2 302.83-23.9L302.83-23.9Q302.83-26.4 301.38-27.93 299.93-29.45 296.83-29.45L296.83-29.45 289.53-29.45Z" opacity="1" transform="matrix(1,0,0,1,0,0)" fill="#21201e" class="undefined-text-1" data-fill-palette-color="secondary" id="text-1"></path></svg></g></svg></g></svg></g></svg></g><g><svg viewBox="0 0 245.65351679999995 167.0143212639106" height="167.0143212639106" width="245.65351679999995"><g><svg xmlns="http://www.w3.org/2000/svg" xmlns:xlink="http://www.w3.org/1999/xlink" version="1.1" x="0" y="0" viewBox="23.72100067138672 32.13399887084961 52.55799865722656 35.73300552368164" enable-background="new 0 0 100 100" xml:space="preserve" height="167.0143212639106" width="245.65351679999995" class="icon-icon-0" data-fill-palette-color="accent" id="icon-0"><path d="M74.381 48.661c-2.165-2.165-5.489-2.471-7.99-0.933L53.796 35.134h1.369c0.829 0 1.5-0.672 1.5-1.5s-0.671-1.5-1.5-1.5H25.221c-0.828 0-1.5 0.672-1.5 1.5s0.672 1.5 1.5 1.5h3.49v19.933c-2.856 0.68-4.99 3.248-4.99 6.31 0 3.579 2.912 6.49 6.49 6.49 2.005 0 3.799-0.914 4.991-2.347 1.192 1.433 2.986 2.347 4.991 2.347 3.578 0 6.49-2.911 6.49-6.49 0-3.062-2.134-5.63-4.99-6.31V35.134h7.86L64.27 49.85c-1.539 2.501-1.232 5.824 0.932 7.99 2.531 2.531 6.648 2.531 9.18 0C76.911 55.309 76.912 51.191 74.381 48.661zM30.211 64.866c-1.924 0-3.49-1.565-3.49-3.49s1.566-3.491 3.49-3.491c1.926 0 3.491 1.566 3.491 3.491S32.137 64.866 30.211 64.866zM43.684 61.376c0 1.925-1.566 3.49-3.49 3.49-1.926 0-3.491-1.565-3.491-3.49s1.565-3.491 3.491-3.491C42.117 57.885 43.684 59.451 43.684 61.376zM38.693 55.066c-1.389 0.33-2.607 1.103-3.491 2.166-0.884-1.063-2.103-1.836-3.491-2.166V35.134h6.982V55.066zM72.26 55.719c-1.361 1.361-3.576 1.361-4.938 0-1.36-1.361-1.361-3.576 0-4.938 1.361-1.359 3.576-1.359 4.938 0.002C73.621 52.143 73.62 54.357 72.26 55.719z" fill="#f5ba41" data-fill-palette-color="accent"></path></svg></g></svg></g></svg></g><defs></defs></svg><rect width="395.52" height="100.7728362757259" fill="none" stroke="none" visibility="hidden"></rect></g></svg></g></svg>